HIERARCHY
ROOT joint_0
{
	OFFSET 0.000000 0.000000 0.000000
	CHANNELS 6 Xposition Yposition Zposition Zrotation Yrotation Xrotation 
	JOINT joint_1
	{
		OFFSET 13.542969 -4.074463 123.986084
		CHANNELS 3 Zrotation Yrotation Xrotation
		JOINT joint_2
		{
			OFFSET -0.108154 -3.018066 113.860962
			CHANNELS 3 Zrotation Yrotation Xrotation
			JOINT joint_3
			{
				OFFSET -1.139648 -3.876465 113.702026
				CHANNELS 3 Zrotation Yrotation Xrotation
				JOINT joint_4
				{
					OFFSET 13.593506 -8.582153 160.876953
					CHANNELS 3 Zrotation Yrotation Xrotation
					JOINT joint_5
					{
						OFFSET 26.480957 -11.565674 94.427979
						CHANNELS 3 Zrotation Yrotation Xrotation
						End Site
						{
							OFFSET 0.000000 0.000000 0.000000
						}
					}
				}
				JOINT joint_6
				{
					OFFSET 3.003662 -39.658691 88.713989
					CHANNELS 3 Zrotation Yrotation Xrotation
					JOINT joint_7
					{
						OFFSET -25.253906 -162.506348 -28.477051
						CHANNELS 3 Zrotation Yrotation Xrotation
						JOINT joint_8
						{
							OFFSET 23.083252 -8.502686 -295.281982
							CHANNELS 3 Zrotation Yrotation Xrotation
							JOINT joint_9
							{
								OFFSET 20.205566 -32.167908 -263.458008
								CHANNELS 3 Zrotation Yrotation Xrotation
								End Site
								{
									OFFSET 0.000000 0.000000 0.000000
								}
							}
						}
					}
				}
				JOINT joint_10
				{
					OFFSET 12.313232 30.012939 91.642944
					CHANNELS 3 Zrotation Yrotation Xrotation
					JOINT joint_11
					{
						OFFSET 31.960205 162.667969 -19.398926
						CHANNELS 3 Zrotation Yrotation Xrotation
						JOINT joint_12
						{
							OFFSET 51.325195 40.249023 -289.038086
							CHANNELS 3 Zrotation Yrotation Xrotation
							JOINT joint_13
							{
								OFFSET 70.170898 60.433594 -249.556030
								CHANNELS 3 Zrotation Yrotation Xrotation
								End Site
								{
									OFFSET 0.000000 0.000000 0.000000
								}
							}
						}
					}
				}
			}
		}
	}
	JOINT joint_14
	{
		OFFSET -15.093262 -91.803833 -113.326904
		CHANNELS 3 Zrotation Yrotation Xrotation
		JOINT joint_15
		{
			OFFSET 2.288818 -12.306763 -494.206055
			CHANNELS 3 Zrotation Yrotation Xrotation
			JOINT joint_16
			{
				OFFSET -54.691650 0.383423 -424.447006
				CHANNELS 3 Zrotation Yrotation Xrotation
				JOINT joint_17
				{
					OFFSET 202.154297 -21.791382 -80.181999
					CHANNELS 3 Zrotation Yrotation Xrotation
					End Site
					{
						OFFSET 0.000000 0.000000 0.000000
					}
				}
			}
		}
	}
	JOINT joint_18
	{
		OFFSET 10.704102 91.957275 -113.713013
		CHANNELS 3 Zrotation Yrotation Xrotation
		JOINT joint_19
		{
			OFFSET 0.427490 1.374878 -494.359924
			CHANNELS 3 Zrotation Yrotation Xrotation
			JOINT joint_20
			{
				OFFSET -53.071777 2.769531 -424.643028
				CHANNELS 3 Zrotation Yrotation Xrotation
				JOINT joint_21
				{
					OFFSET 200.264648 -28.253052 -82.862999
					CHANNELS 3 Zrotation Yrotation Xrotation
					End Site
					{
						OFFSET 0.000000 0.000000 0.000000
					}
				}
			}
		}
	}
}
MOTION
Frames: 7
Frame Time: 0.016667
-3046.110107 1268.586182 1142.751953 13.779639 2.811304 1.397532 0.555867 1.460852 -1.045437 0.525614 -0.265347 0.234983 0.542372 0.315649 -0.108160 -0.505068 0.227327 1.830016 0.000000 0.000000 0.000000 0.350405 1.655446 1.491557 -0.213464 2.288332 -1.697522 0.053209 -0.113709 0.521335 0.000000 0.000000 0.000000 -0.536526 1.176430 0.903261 1.115579 1.340001 0.920692 2.465221 3.412149 5.887570 0.000000 0.000000 0.000000 -6.080670 -10.140653 1.215628 -6.541945 21.217937 1.905578 -5.751998 -2.605044 -2.479582 0.000000 0.000000 0.000000 -4.985228 -6.562894 0.296343 -4.819393 15.763338 -2.633678 -4.851297 -1.544283 -2.166683 0.000000 0.000000 0.000000 
-3038.366943 1267.170166 1141.902954 13.759090 2.714134 1.343914 0.633762 1.278370 -1.124801 0.633695 -0.241062 0.292524 0.650809 0.285833 -0.122135 -0.482529 0.543474 1.869209 0.000000 0.000000 0.000000 0.240506 1.680636 1.297073 -0.172687 2.284980 -1.908196 0.174575 -0.690864 1.140329 0.000000 0.000000 0.000000 -0.418334 1.238946 0.744635 1.275751 1.227337 1.553040 2.716956 3.710876 6.611766 0.000000 0.000000 0.000000 -5.651459 -8.664738 1.207629 -6.213881 19.640428 2.277846 -5.373669 -2.918636 -2.372204 0.000000 0.000000 0.000000 -5.437978 -8.654972 0.710967 -5.303958 20.660945 -3.226745 -5.454063 -1.385347 -2.356807 0.000000 0.000000 0.000000 
-3030.642334 1265.507202 1140.725952 13.536293 2.600176 1.169444 0.799290 1.111346 -1.006919 0.826412 -0.235958 0.282469 0.845622 0.248549 -0.126129 -0.457912 0.821295 1.883704 0.000000 0.000000 0.000000 0.147709 1.717693 1.087258 -0.136394 2.303197 -2.173374 0.309133 -1.373239 1.878690 0.000000 0.000000 0.000000 -0.215655 1.262242 0.584676 1.403625 1.049155 2.264888 2.853338 3.847134 7.042965 0.000000 0.000000 0.000000 -4.749866 -7.094591 1.172417 -5.393449 17.887255 2.762280 -4.473268 -3.376720 -2.079504 0.000000 0.000000 0.000000 -5.888112 -11.067687 1.402877 -5.877923 26.047025 -4.095367 -6.360274 -0.628647 -2.559628 0.000000 0.000000 0.000000 
-3022.922363 1264.308472 1139.396973 13.161957 2.431810 0.919581 0.980798 1.045968 -0.760004 1.031285 -0.241673 0.257710 1.054494 0.228035 -0.103666 -0.443449 0.983541 1.888522 0.000000 0.000000 0.000000 0.118405 1.699743 0.931916 -0.123090 2.320691 -2.625154 0.442688 -2.116167 2.662598 0.000000 0.000000 0.000000 0.114922 1.288691 0.409251 1.491726 0.864768 2.937306 2.885041 3.851158 7.174556 0.000000 0.000000 0.000000 -3.967632 -5.570710 1.268656 -4.656364 16.283250 3.152494 -3.731472 -3.800808 -1.840718 0.000000 0.000000 0.000000 -6.235436 -13.539927 2.180556 -6.463203 31.326810 -5.109947 -7.556245 0.855457 -2.745688 0.000000 0.000000 0.000000 
-3015.281982 1263.805054 1137.844971 12.664511 2.195092 0.571612 1.150587 1.071381 -0.329004 1.228593 -0.219178 0.226048 1.254938 0.236855 -0.034043 -0.438910 0.972031 1.864865 0.000000 0.000000 0.000000 0.192734 1.617234 0.847042 -0.144493 2.358856 -3.385752 0.587322 -3.023820 3.577115 0.000000 0.000000 0.000000 0.664011 1.309816 0.183311 1.535954 0.653817 3.553108 2.795833 3.719397 6.934173 0.000000 0.000000 0.000000 -3.534875 -4.141448 1.519817 -4.229703 14.993652 3.549025 -3.351096 -4.200225 -1.734869 0.000000 0.000000 0.000000 -6.558539 -16.197110 3.093496 -7.183901 36.689552 -6.442619 -9.402292 3.575244 -2.961037 0.000000 0.000000 0.000000 
-3007.644775 1263.766846 1136.142944 11.992441 1.892992 0.101059 1.333489 1.214081 0.336025 1.451836 -0.211748 0.123524 1.483643 0.262910 0.062309 -0.442328 0.843542 1.827810 0.000000 0.000000 0.000000 0.329238 1.475328 0.823510 -0.204702 2.396494 -4.340509 0.721426 -3.989956 4.541764 0.000000 0.000000 0.000000 1.342345 1.334688 -0.053693 1.545330 0.441603 4.122534 2.607680 3.476307 6.388626 0.000000 0.000000 0.000000 -3.225842 -2.752320 1.911308 -3.870686 13.898264 3.917384 -3.056251 -4.577152 -1.658516 0.000000 0.000000 0.000000 -6.677631 -18.924188 4.142607 -7.893335 41.864662 -7.814862 -11.775543 7.261223 -3.184584 0.000000 0.000000 0.000000 
-2999.765381 1264.208130 1134.686035 11.199068 1.586754 -0.349215 1.502612 1.461486 0.966471 1.669871 -0.256663 -0.008103 1.713648 0.295930 0.143768 -0.460763 0.697227 1.836439 0.000000 0.000000 0.000000 0.448542 1.232110 0.872151 -0.284230 2.337762 -5.243456 0.801875 -4.635879 5.240923 0.000000 0.000000 0.000000 1.914758 1.439887 -0.195778 1.529829 0.367193 4.560018 2.387542 3.185659 5.757070 0.000000 0.000000 0.000000 -2.962141 -1.476999 2.384617 -3.496283 12.979421 3.985041 -2.779537 -4.815306 -1.575057 0.000000 0.000000 0.000000 -6.287413 -21.328743 4.895541 -8.147514 46.072408 -8.348017 -13.360889 10.028811 -3.250527 0.000000 0.000000 0.000000 
